# xmcd CD database file
#
# Track frame offsets:
#	150
#	26297
#	50118
#	73300
#	101960
#	140557
#	162314
#	188299
#	214828
#	243831
#	266137
#	297526
#
# Disc length: 4372 seconds
#
# Revision: 8
# Processed by: cddbd v1.5.1PL0 Copyright (c) Steve Scherf et al.
# Submitted via: CDex 1.51
#
DISCID=bc11120c
DTITLE=MISIA - GREATEST HITS
DYEAR=1900
DGENRE=Salsa
TTITLE0=aaaa
TTITLE1=bbbb
TTITLE2=¿¿¿¿¿¿¿¿¿
TTITLE3=INTO THE LIGHT
TTITLE4=THE GLORY DAY
TTITLE5=BELIEVE
TTITLE6=¿¿¿¿¿¿
TTITLE7=sweetness
TTITLE8=It's just love
TTITLE9=Escape
TTITLE10=Everything
TTITLE11=¿¿¿¿¿¿¿¿¿¿¿¿(Live version)
EXTD=
EXTT0=
EXTT1=
EXTT2=
EXTT3=
EXTT4=
EXTT5=
EXTT6=
EXTT7=
EXTT8=
EXTT9=
EXTT10=
EXTT11=
PLAYORDER=
